<svg width="22" height="17" viewBox="0 0 22 17" fill="none" xmlns="http://www.w3.org/2000/svg">
<path d="M7.25002 14.75C7.25002 15.1478 7.09198 15.5294 6.81068 15.8107C6.52937 16.092 6.14784 16.25 5.75002 16.25C5.35219 16.25 4.97066 16.092 4.68936 15.8107C4.40805 15.5294 4.25002 15.1478 4.25002 14.75M7.25002 14.75C7.25002 14.3522 7.09198 13.9706 6.81068 13.6893C6.52937 13.408 6.14784 13.25 5.75002 13.25C5.35219 13.25 4.97066 13.408 4.68936 13.6893C4.40805 13.9706 4.25002 14.3522 4.25002 14.75M7.25002 14.75H13.25M4.25002 14.75H2.37502C2.07665 14.75 1.7905 14.6315 1.57952 14.4205C1.36855 14.2095 1.25002 13.9234 1.25002 13.625V10.25M18.5 14.75C18.5 15.1478 18.342 15.5294 18.0607 15.8107C17.7794 16.092 17.3978 16.25 17 16.25C16.6022 16.25 16.2207 16.092 15.9394 15.8107C15.6581 15.5294 15.5 15.1478 15.5 14.75M18.5 14.75C18.5 14.3522 18.342 13.9706 18.0607 13.6893C17.7794 13.408 17.3978 13.25 17 13.25C16.6022 13.25 16.2207 13.408 15.9394 13.6893C15.6581 13.9706 15.5 14.3522 15.5 14.75M18.5 14.75H19.625C20.246 14.75 20.754 14.246 20.715 13.626C20.5141 10.3236 19.4019 7.14156 17.502 4.433C17.3211 4.17928 17.0848 3.97002 16.8111 3.82103C16.5373 3.67204 16.2333 3.58723 15.922 3.573H13.25M15.5 14.75H13.25M13.25 3.573V2.615C13.25 2.047 12.828 1.567 12.263 1.509C8.92997 1.16303 5.57006 1.16303 2.23702 1.509C1.96477 1.53846 1.71313 1.66786 1.53081 1.87217C1.34848 2.07648 1.24843 2.34117 1.25002 2.615V10.25M13.25 3.573V10.25M13.25 14.75V10.25M13.25 10.25H1.25002" stroke="black" stroke-width="1.5" stroke-linecap="round" stroke-linejoin="round"/>
</svg>
