<svg width="22" height="15" viewBox="0 0 22 15" fill="none" xmlns="http://www.w3.org/2000/svg">
<path d="M6.25 10.25H15.5M3.5 13.5H18.5C19.0967 13.5 19.669 13.2629 20.091 12.841C20.5129 12.419 20.75 11.8467 20.75 11.25V3.75C20.75 3.15326 20.5129 2.58097 20.091 2.15901C19.669 1.73705 19.0967 1.5 18.5 1.5H3.5C2.90326 1.5 2.33097 1.73705 1.90901 2.15901C1.48705 2.58097 1.25 3.15326 1.25 3.75V11.25C1.25 11.8467 1.48705 12.419 1.90901 12.841C2.33097 13.2629 2.90326 13.5 3.5 13.5ZM10.5 6H18V5H10.5V6ZM4 6H8.5V5H4V6Z" stroke="black" stroke-width="1.5" stroke-linecap="round" stroke-linejoin="round"/>
</svg>
